<svg id="Capa_1" enable-background="new 0 0 512 512" height="512" viewBox="0 0 512 512" width="512" xmlns="http://www.w3.org/2000/svg"><path id="XMLID_294_" d="m482 80h-24v-50c0-16.542-13.458-30-30-30h-344c-16.542 0-30 13.458-30 30v50h-24c-16.542 0-30 13.458-30 30v287.998c0 16.542 13.458 30 30 30h176v23.998h-19.024c-16.542 0-30 13.458-30 30v20.004c0 5.523 4.477 10 10 10h178.049c5.523 0 10-4.477 10-10v-20.004c0-16.542-13.458-30-30-30h-19.025v-23.998h176c16.542 0 30-13.458 30-30v-287.998c0-16.542-13.458-30-30-30zm0 20c5.514 0 10 4.486 10 10v229.998h-34v-239.998zm-398-80h344c5.514 0 10 4.486 10 10v50h-364v-50c0-5.514 4.486-10 10-10zm-54 80h24v74.99c0 5.523 4.477 10 10 10s10-4.477 10-10v-74.99h364v239.998h-51v-32.954c0-5.523-4.477-10-10-10h-13.011c-2.287-7.874-5.425-15.444-9.383-22.637l9.205-9.204c3.905-3.905 3.905-10.237 0-14.143l-30.36-30.36c-3.905-3.904-10.237-3.904-14.143 0l-9.204 9.205c-7.192-3.958-14.763-7.096-22.637-9.382v-13.011c0-5.523-4.477-10-10-10h-42.936c-5.523 0-10 4.477-10 10v13.011c-7.874 2.287-15.444 5.424-22.637 9.382l-9.204-9.205c-3.905-3.904-10.237-3.904-14.143 0l-30.36 30.36c-3.905 3.905-3.905 10.237 0 14.143l9.205 9.204c-3.958 7.192-7.096 14.763-9.383 22.637h-13.009c-5.523 0-10 4.477-10 10v32.954h-51v-75.008c0-5.523-4.477-10-10-10s-10 4.477-10 10v75.008h-34v-229.998c0-5.514 4.486-10 10-10zm147.045 165.774-7.643-7.643 16.218-16.218 7.643 7.643c3.337 3.335 8.552 3.886 12.512 1.319 9.463-6.136 19.84-10.437 30.843-12.783 4.616-.984 7.915-5.061 7.915-9.78v-10.802h22.936v10.802c0 4.719 3.299 8.796 7.915 9.78 11.002 2.346 21.379 6.646 30.843 12.783 3.96 2.567 9.175 2.017 12.512-1.319l7.643-7.643 16.218 16.218-7.643 7.643c-3.336 3.337-3.887 8.552-1.319 12.512 6.136 9.464 10.437 19.841 12.783 30.843.984 4.615 5.061 7.915 9.78 7.915h10.799v22.954h-62.343c.89-3.75 1.349-7.604 1.349-11.486 0-27.574-22.433-50.006-50.006-50.006s-50.006 22.433-50.006 50.006c0 3.882.459 7.736 1.349 11.486h-62.343v-22.954h10.801c4.719 0 8.796-3.299 9.78-7.915 2.346-11.003 6.647-21.38 12.783-30.843 2.568-3.959 2.018-9.175-1.319-12.512zm48.949 62.738c0-16.545 13.46-30.006 30.006-30.006s30.006 13.461 30.006 30.006c0 3.949-.799 7.85-2.316 11.486h-55.38c-1.517-3.636-2.316-7.537-2.316-11.486zm109.03 153.484v10.004h-158.048v-10.004c0-5.514 4.486-10 10-10h138.049c5.514 0 9.999 4.486 9.999 10zm-49.024-30h-60v-23.998h60zm196-43.998h-452c-5.514 0-10-4.486-10-10v-38h472v38c0 5.514-4.486 10-10 10z"/><path id="XMLID_1617_" d="m286 60h108c5.523 0 10-4.477 10-10s-4.477-10-10-10h-108c-5.523 0-10 4.477-10 10s4.477 10 10 10z"/><path id="XMLID_1618_" d="m162 60c2.63 0 5.21-1.07 7.07-2.93s2.93-4.44 2.93-7.07-1.07-5.21-2.93-7.07-4.44-2.93-7.07-2.93-5.21 1.07-7.07 2.93-2.93 4.44-2.93 7.07 1.07 5.21 2.93 7.07 4.44 2.93 7.07 2.93z"/><path id="XMLID_1620_" d="m118 60c2.63 0 5.21-1.07 7.07-2.93s2.93-4.44 2.93-7.07-1.07-5.21-2.93-7.07-4.44-2.93-7.07-2.93-5.21 1.07-7.07 2.93-2.93 4.44-2.93 7.07 1.07 5.21 2.93 7.07 4.44 2.93 7.07 2.93z"/><path id="XMLID_1623_" d="m206 60c2.63 0 5.21-1.07 7.07-2.93s2.93-4.44 2.93-7.07-1.07-5.21-2.93-7.07-4.44-2.93-7.07-2.93-5.21 1.07-7.07 2.93-2.93 4.44-2.93 7.07 1.07 5.21 2.93 7.07 4.44 2.93 7.07 2.93z"/><path id="XMLID_1624_" d="m112 147.998h23.798c5.523 0 10-4.477 10-10s-4.477-10-10-10h-23.798c-5.523 0-10 4.477-10 10s4.477 10 10 10z"/><path id="XMLID_1626_" d="m179.798 147.998h91.738c5.523 0 10-4.477 10-10s-4.477-10-10-10h-91.738c-5.523 0-10 4.477-10 10s4.477 10 10 10z"/><path id="XMLID_1627_" d="m112 195.996h58c5.523 0 10-4.477 10-10s-4.477-10-10-10h-58c-5.523 0-10 4.477-10 10s4.477 10 10 10z"/><path id="XMLID_1628_" d="m315.536 147.998h84.464c5.523 0 10-4.477 10-10s-4.477-10-10-10h-84.464c-5.523 0-10 4.477-10 10s4.477 10 10 10z"/><path id="XMLID_1633_" d="m400 175.996h-68.439c-5.523 0-10 4.477-10 10s4.477 10 10 10h68.439c5.523 0 10-4.477 10-10s-4.477-10-10-10z"/><path id="XMLID_1635_" d="m64 229.99c2.63 0 5.21-1.07 7.07-2.93s2.93-4.44 2.93-7.07-1.07-5.21-2.93-7.07-4.44-2.93-7.07-2.93-5.21 1.07-7.07 2.93-2.93 4.44-2.93 7.07 1.07 5.21 2.93 7.07 4.44 2.93 7.07 2.93z"/></svg>