<svg id="Capa_1" enable-background="new 0 0 512 512" height="512" viewBox="0 0 512 512" width="512" xmlns="http://www.w3.org/2000/svg"><g><g><path d="m141.92 305.668h-2.514c-56.764 0-102.781 46.017-102.781 102.781v96.048h208.076v-96.048c0-56.765-46.017-102.781-102.781-102.781z" fill="#9cc6fa"/><path d="m173.885 310.749c-41.12 13.43-70.83 52.1-70.83 97.7v96.05h-66.43v-96.05c0-56.76 46.02-102.78 102.78-102.78h2.52c11.16 0 21.9 1.78 31.96 5.08z" fill="#7fb4fb"/><path d="m195.58 504.5h-87.88v-26.07h61.8c14.4 0 26.08 11.67 26.08 26.07z" fill="#7a8a93"/><g><path d="m223.65 43.311c0 19.788-16.046 35.823-35.823 35.823h-81.59c-9.888 0-18.844-4.012-25.316-10.495-6.484-6.472-10.495-15.439-10.495-25.328 0-1.73.124-3.427.36-5.09 2.472-17.372 17.405-30.721 35.451-30.721h81.59c9.888 0 18.844 4.012 25.327 10.484 5.349 5.349 9.023 12.394 10.136 20.249.236 1.662.36 3.348.36 5.078z" fill="#e28086"/><path d="m129.829 68.644c6.484 6.484 15.439 10.495 25.327 10.495h-48.925c-9.888 0-18.844-4.012-25.328-10.495-6.472-6.472-10.484-15.439-10.484-25.327 0-19.777 16.035-35.811 35.811-35.811h48.925c-19.777 0-35.823 16.035-35.823 35.811.002 9.888 4.014 18.855 10.497 25.327z" fill="#dd636e"/><path d="m223.65 43.311c0 19.788-16.046 35.823-35.823 35.823h-81.59c-9.888 0-18.844-4.012-25.316-10.495-6.484-6.472-10.495-15.439-10.495-25.328 0-1.73.124-3.427.36-5.09 8.203-2.483 16.9-3.82 25.901-3.82h100.692c9.012 0 17.72 1.337 25.912 3.832.235 1.662.359 3.348.359 5.078z" fill="#dd636e"/><path d="m197.375 54.627h-100.684c-49.259 0-89.191 39.932-89.191 89.191v18.782c0 49.259 39.932 89.191 89.191 89.191h100.684c49.259 0 89.191-39.932 89.191-89.191v-18.782c0-49.259-39.933-89.191-89.191-89.191z" fill="#e28086"/><path d="m169.724 251.791h-73.038c-49.25 0-89.186-39.924-89.186-89.186v-18.788c0-49.25 39.935-89.186 89.186-89.186h73.039c-49.25 0-89.186 39.935-89.186 89.186v18.788c0 49.262 39.935 89.186 89.185 89.186z" fill="#dd636e"/><path d="m245.457 244.434h-195.443c-15.694 0-28.417-12.723-28.417-28.417 0-15.694 12.723-28.417 28.417-28.417h195.443c15.694 0 28.417 12.723 28.417 28.417-.001 15.694-12.723 28.417-28.417 28.417z" fill="#eaac9d"/><path d="m65.465 170.268v84.214c0 45.644 37.175 82.609 82.898 82.268 45.361-.338 81.643-37.939 81.643-83.301v-83.181-.21h-3.865c-35.151 0-66.52-22.063-78.405-55.144-11.885 33.081-43.254 55.144-78.405 55.144h-3.865v.21z" fill="#ffddce"/><path d="m171.989 333.049c-7.472 2.349-15.405 3.641-23.631 3.697-45.722.348-82.893-36.62-82.893-82.264v-84.421h3.865c16.271 0 31.744-4.731 44.834-13.102v97.523c.001 36.924 24.328 68.162 57.825 78.567z" fill="#ffcbbe"/></g><path d="m162.28 504.5h-54.58v-26.07h28.51c14.4 0 26.07 11.67 26.07 26.07z" fill="#687780"/><path d="m465.477 440.62h-223.983c-21.552 0-39.023-17.471-39.023-39.023v-146.504c0-21.552 17.471-39.023 39.023-39.023h223.983c21.552 0 39.023 17.471 39.023 39.023v146.503c0 21.553-17.471 39.024-39.023 39.024z" fill="#7a8a93"/><path d="m270.991 440.624h-29.5c-21.55 0-39.02-17.47-39.02-39.02v-146.51c0-21.55 17.47-39.02 39.02-39.02h29.5c-21.55 0-39.02 17.47-39.02 39.02v146.51c0 21.549 17.47 39.02 39.02 39.02z" fill="#687780"/><path d="m371.579 319.73h-36.187c-14.181 0-25.677 11.496-25.677 25.677v144.653h87.542v-144.653c-.001-14.181-11.497-25.677-25.678-25.677z" fill="#7a8a93"/><path d="m361.575 319.727c-14.19 0-25.68 11.5-25.68 25.68v144.65h-26.18v-144.65c0-14.18 11.5-25.68 25.68-25.68z" fill="#687780"/><path d="m420.558 473.773h-134.145c-8.485 0-15.363 6.878-15.363 15.363 0 8.485 6.878 15.363 15.363 15.363h134.145c8.485 0 15.363-6.878 15.363-15.363 0-8.485-6.878-15.363-15.363-15.363z" fill="#7a8a93"/><path d="m319.32 499.996c2.78 2.78 6.62 4.5 10.86 4.5h-43.77c-4.24 0-8.08-1.72-10.86-4.5s-4.5-6.62-4.5-10.86c0-8.49 6.88-15.37 15.36-15.37h43.77c-8.48 0-15.36 6.88-15.36 15.37 0 4.24 1.72 8.08 4.5 10.86z" fill="#687780"/><path d="m81.625 498.602v5.898h26.071c14.399 0 26.071-11.673 26.071-26.071h39.107c7.199 0 13.036-5.836 13.036-13.036 0-7.199-5.836-13.036-13.036-13.036h-45.005c-25.54 0-46.244 20.705-46.244 46.245z" fill="#ffddce"/><path d="m153.585 452.36c-25.54 0-46.25 20.7-46.25 46.24v5.9h-25.71v-5.9c0-25.54 20.7-46.24 46.24-46.24z" fill="#ffcbbe"/></g><g><path d="m157.734 278.642c10.477 0 20.953-3.988 28.93-11.963 2.929-2.929 2.929-7.678 0-10.606-2.93-2.929-7.678-2.929-10.607 0-10.102 10.102-26.542 10.103-36.644 0-2.93-2.929-7.678-2.929-10.607 0s-2.929 7.678 0 10.606c7.976 7.975 18.453 11.963 28.928 11.963z"/><path d="m136.268 227.159c4.143 0 7.5-3.358 7.5-7.5v-16.62c0-4.142-3.357-7.5-7.5-7.5s-7.5 3.358-7.5 7.5v16.62c0 4.142 3.357 7.5 7.5 7.5z"/><path d="m179.202 227.159c4.143 0 7.5-3.358 7.5-7.5v-16.62c0-4.142-3.357-7.5-7.5-7.5s-7.5 3.358-7.5 7.5v16.62c0 4.142 3.358 7.5 7.5 7.5z"/><path d="m465.48 208.57h-183.052c7.618-14.071 11.632-29.842 11.632-45.97v-18.79c0-41.833-26.709-77.542-63.969-90.979.696-3.098 1.058-6.278 1.058-9.519 0-11.568-4.508-22.446-12.696-30.636-8.188-8.174-19.065-12.676-30.626-12.676h-81.59c-23.882 0-43.311 19.43-43.311 43.312 0 3.219.356 6.377 1.043 9.456-14.035 5.026-26.809 13.32-37.439 24.519-2.852 3.004-2.729 7.751.276 10.603 3.002 2.851 7.75 2.729 10.603-.276 15.6-16.434 36.653-25.484 59.281-25.484h100.69c45.038 0 81.68 36.642 81.68 81.68v18.79c0 10.542-2.024 20.903-5.918 30.555-6.594-7.969-16.555-13.055-27.682-13.055h-7.95v-10.04c0-4.142-3.357-7.5-7.5-7.5h-3.87c-31.895 0-60.564-20.167-71.341-50.184-1.069-2.979-3.894-4.966-7.059-4.966s-5.989 1.987-7.059 4.966c-5.301 14.765-14.892 27.345-27.736 36.379-12.84 9.031-27.922 13.805-43.615 13.805h-3.87c-4.143 0-7.5 3.358-7.5 7.5v10.045h-7.947c-9.603 0-18.625 3.734-25.405 10.514-1.167 1.167-2.236 2.404-3.219 3.695-4.204-9.972-6.389-20.725-6.389-31.714v-18.79c0-11.687 2.408-22.95 7.157-33.476 1.703-3.776.023-8.218-3.753-9.921-3.772-1.703-8.217-.023-9.921 3.752-5.629 12.479-8.483 25.817-8.483 39.645v18.79c0 17.914 4.915 35.301 14.222 50.476-.079.976-.128 1.958-.128 2.948 0 19.797 16.113 35.903 35.919 35.903h7.947v2.553c0 22.514 8.224 43.736 23.25 60.277-32.229 20.068-52.09 55.604-52.09 93.693v96.05c0 4.142 3.357 7.5 7.5 7.5h208.08c4.143 0 7.5-3.358 7.5-7.5v-56.38h50.01v18.153h-15.797c-12.606 0-22.863 10.256-22.863 22.863s10.257 22.864 22.863 22.864h134.145c12.606 0 22.863-10.256 22.863-22.863s-10.257-22.863-22.863-22.863h-15.798v-18.154h60.721c25.651 0 46.52-20.869 46.52-46.52v-146.51c-.001-25.652-20.869-46.52-46.521-46.52zm-368.79-161.44c-6.194 0-12.287.58-18.224 1.701-.355-1.8-.54-3.643-.54-5.52 0-15.611 12.7-28.312 28.312-28.312h81.59c7.56 0 14.672 2.945 20.023 8.287 5.352 5.352 8.299 12.463 8.299 20.024 0 1.887-.187 3.74-.546 5.549-5.904-1.131-11.995-1.73-18.224-1.73h-100.69zm-46.677 189.797c-11.535 0-20.919-9.377-20.919-20.903 0-5.596 2.174-10.851 6.121-14.798 3.946-3.947 9.202-6.121 14.798-6.121h7.947v41.822zm378.408 252.209c0 4.336-3.527 7.863-7.863 7.863h-134.145c-4.336 0-7.863-3.527-7.863-7.863s3.527-7.863 7.863-7.863h134.145c4.336 0 7.863 3.527 7.863 7.863zm-182.961-294.036c8.9 0 16.499 5.596 19.516 13.47h-23.486c-1.342 0-2.667.07-3.98.182v-13.652zm-172.5-17.611c17.49-.688 34.227-6.344 48.614-16.464 10.783-7.584 19.651-17.254 26.179-28.45 15.475 26.415 43.63 43.662 74.757 44.913v35.147c-16.214 7.277-27.54 23.563-27.54 42.456v57.054c-13.159 10.922-29.604 16.975-46.665 17.106-20.116.175-38.997-7.558-53.247-21.702-14.25-14.145-22.098-32.991-22.098-53.068zm16.197 319.511c.845-20.623 17.886-37.143 38.712-37.143h45.005c3.053 0 5.536 2.483 5.536 5.536s-2.483 5.536-5.536 5.536h-3.369-35.737c-4.143 0-7.5 3.358-7.5 7.5 0 10.24-8.331 18.571-18.571 18.571zm46.486 0c2.216-3.324 3.861-7.06 4.78-11.071h29.082c7.572 0 14.102 4.557 16.989 11.071zm66.578 0c-1.819-7.936-6.451-14.809-12.796-19.502 2.493-3.399 3.985-7.576 3.985-12.105 0-11.323-9.213-20.536-20.536-20.536h-45.005c-15.212 0-28.958 6.363-38.744 16.555v-51.392c0-4.142-3.357-7.5-7.5-7.5s-7.5 3.358-7.5 7.5v86.98h-30.005v-88.55c0-34.057 18.378-65.755 47.961-82.724l.698-.276c15.672 12.187 34.794 18.803 54.952 18.802.228 0 .459-.001.688-.002 16.571-.127 32.648-4.899 46.552-13.633v70.983c0 24.204 18.584 44.141 42.23 46.314v49.086zm294.779-95.4c0 17.38-14.14 31.52-31.52 31.52h-60.72v-21.39c0-4.142-3.357-7.5-7.5-7.5s-7.5 3.358-7.5 7.5v54.54h-72.55v-120.86c0-10.024 8.155-18.18 18.18-18.18h36.19c10.024 0 18.18 8.156 18.18 18.18v36.44c0 4.142 3.357 7.5 7.5 7.5s7.5-3.358 7.5-7.5v-36.44c0-18.295-14.885-33.18-33.18-33.18h-36.19c-18.295 0-33.18 14.885-33.18 33.18v87.71h-60.72c-17.381 0-31.521-14.14-31.521-31.52v-146.51c0-17.38 14.14-31.52 31.521-31.52h223.99c17.38 0 31.52 14.14 31.52 31.52z"/><path d="m475.094 372.361h-48.528c-4.143 0-7.5 3.358-7.5 7.5s3.357 7.5 7.5 7.5h48.528c4.143 0 7.5-3.358 7.5-7.5s-3.358-7.5-7.5-7.5z"/><path d="m475.094 397.392h-48.528c-4.143 0-7.5 3.358-7.5 7.5s3.357 7.5 7.5 7.5h48.528c4.143 0 7.5-3.358 7.5-7.5s-3.358-7.5-7.5-7.5z"/><path d="m475.094 347.331h-48.528c-4.143 0-7.5 3.358-7.5 7.5s3.357 7.5 7.5 7.5h48.528c4.143 0 7.5-3.358 7.5-7.5s-3.358-7.5-7.5-7.5z"/><path d="m280.406 372.361h-48.529c-4.143 0-7.5 3.358-7.5 7.5s3.357 7.5 7.5 7.5h48.529c4.143 0 7.5-3.358 7.5-7.5s-3.357-7.5-7.5-7.5z"/><path d="m280.406 397.392h-48.529c-4.143 0-7.5 3.358-7.5 7.5s3.357 7.5 7.5 7.5h48.529c4.143 0 7.5-3.358 7.5-7.5s-3.357-7.5-7.5-7.5z"/><path d="m280.406 347.331h-48.529c-4.143 0-7.5 3.358-7.5 7.5s3.357 7.5 7.5 7.5h48.529c4.143 0 7.5-3.358 7.5-7.5s-3.357-7.5-7.5-7.5z"/></g></g></svg>