<svg id="Capa_1" enable-background="new 0 0 512 512" height="512" viewBox="0 0 512 512" width="512" xmlns="http://www.w3.org/2000/svg"><g><g><g><path d="m183.835 350.362 58.912-18.934 58.912 18.934-6.27 9.007 12.991 9.926 17.813 50.179-83.446 18.933-83.446-18.933 17.813-50.179 12.845-9.517z" fill="#978ecb"/><path d="m177.114 369.295h131.266l-6.721-18.933-58.912-18.934-58.912 18.934z" fill="#6e61b6"/><path d="m108.064 464.227c-5.228 0-9.467-4.238-9.467-9.467v-10.286c0-13.807 11.193-25 25-25h202.595l35.703 3c13.807 0 25 8.193 25 22v10.286c0 5.228-4.238 7.467-9.467 7.467l-44.73 2z" fill="#edf5fa"/><path d="m386.896 454.76v-10.286c0-13.807-11.193-25-25-25h-35.703v34.753c0 5.523 4.477 10 10 10h41.237c5.227 0 9.466-4.238 9.466-9.467z" fill="#d0e7f2"/><path d="m22.5 350.362c-8.284 0-15-6.716-15-15v-272.589c0-8.284 6.716-15 15-15h428.493c8.284 0 15 6.716 15 15l12 272.589c0 8.284-6.716 15-15 15z" fill="#5b596d"/><path d="m462.993 47.773h-30c8.284 0 15 6.716 15 15v272.589c0 8.284-6.716 15-15 15h30c8.284 0 15-6.716 15-15v-272.589c0-8.285-6.715-15-15-15z" fill="#3e3e4d"/><path d="m172.114 317.195h-121.556c-2.761 0-5-2.239-5-5v-128.545c0-2.761 2.239-5 5-5h121.555c2.761 0 5 2.239 5 5v128.545c.001 2.762-2.238 5-4.999 5z" fill="#978ecb"/><path d="m434.935 147.825h-384.377c-2.761 0-5-2.239-5-5v-56.886c0-2.761 2.239-5 5-5h384.377c2.761 0 5 2.239 5 5v56.886c0 2.762-2.239 5-5 5z" fill="#fee97d"/><path d="m434.935 317.195h-216.249c-2.761 0-5-2.239-5-5v-128.545c0-2.761 2.239-5 5-5h216.249c2.761 0 5 2.239 5 5v128.545c0 2.762-2.239 5-5 5z" fill="#e592b8"/><path d="m362.699 452.227c0 5.523 4.477 10 10 10h103.801c5.523 0 10-4.477 10-10v-202.524c0-5.523-4.477-10-10-10h-113.801c-5.523 0-10 4.477-10 10v169.771z" fill="#edf5fa"/><path d="m470.386 336.967h-83.573c-2.761 0-5-2.239-5-5v-36.887c0-2.761 2.239-5 5-5h83.573c2.761 0 5 2.239 5 5v36.887c0 2.761-2.239 5-5 5z" fill="#fee97d"/><path d="m494.5 239.703h-26.507c5.523 0 10 4.477 10 10v202.525c0 5.523-4.477 10-10 10h24.507c5.523 0 10-4.477 10-10l2-32.753v-169.772c0-5.523-4.477-10-10-10z" fill="#d0e7f2"/><path d="m352.699 419.474v34.753c0 5.523 4.477 10 10 10h112.801c5.523 0 10-4.477 10-10v-34.753z" fill="#978ecb"/><path d="m504.5 454.227v-34.753h-26.507v34.753c0 5.523-4.477 10-10 10h26.507c5.523 0 10-4.477 10-10z" fill="#6e61b6"/></g></g><g><path d="m50.558 171.15c-6.893 0-12.5 5.607-12.5 12.5v128.545c0 6.893 5.607 12.5 12.5 12.5h121.556c6.893 0 12.5-5.607 12.5-12.5v-128.545c0-6.893-5.607-12.5-12.5-12.5zm119.056 138.545h-116.556v-123.545h116.556z"/><path d="m428.6 435.948c-2.983 0-5.401 2.418-5.401 5.401s2.418 5.401 5.401 5.401 5.401-2.418 5.401-5.401-2.418-5.401-5.401-5.401z"/><path d="m494.5 471.727c9.649 0 17.5-7.851 17.5-17.5v-204.524c0-9.649-7.851-17.5-17.5-17.5h-9.007v-61.743c0-4.142-3.358-7.5-7.5-7.5s-7.5 3.358-7.5 7.5v61.743h-23.058v-48.553c0-6.893-5.607-12.5-12.5-12.5h-216.25c-6.893 0-12.5 5.607-12.5 12.5v128.545c0 6.893 5.607 12.5 12.5 12.5h126.514v18.166h-322.699c-4.135 0-7.5-3.364-7.5-7.5v-272.588c0-4.135 3.365-7.5 7.5-7.5h440.493c4.135 0 7.5 3.365 7.5 7.5v75.001c0 4.142 3.358 7.5 7.5 7.5s7.5-3.358 7.5-7.5v-75.001c0-12.407-10.093-22.5-22.5-22.5h-440.493c-12.407 0-22.5 10.093-22.5 22.5v272.588c0 12.407 10.093 22.5 22.5 22.5h150.714l-19.209 54.113h-30.407c-17.921 0-32.5 14.58-32.5 32.5v10.287c0 9.355 7.611 16.966 16.966 16.966zm2.5-222.024v162.271h-136.801v-162.271c0-1.378 1.122-2.5 2.5-2.5h131.801c1.378 0 2.5 1.121 2.5 2.5zm-275.814 59.992v-123.545h211.25v46.052h-69.736c-9.649 0-17.5 7.851-17.5 17.5v59.993zm124.013 102.279h-13.711l-19.209-54.113h32.92zm-156.068-54.113h107.232l19.209 54.113h-145.65zm-83.033 96.9v-10.287c0-9.649 7.85-17.5 17.5-17.5h35.657c.015 0 .031.002.046.002.008 0 .017-.002.025-.002h166.841c.009 0 .017.002.025.002.015 0 .031-.002.046-.002h18.96v27.253c0 .851.082 1.681.2 2.5h-237.334c-1.084 0-1.966-.882-1.966-1.966zm388.402 1.966h-131.801c-1.378 0-2.5-1.122-2.5-2.5v-27.253h136.801v27.253c0 1.378-1.122 2.5-2.5 2.5z"/><path d="m405.072 273.808h47.055c4.142 0 7.5-3.358 7.5-7.5s-3.358-7.5-7.5-7.5h-47.055c-4.142 0-7.5 3.358-7.5 7.5s3.358 7.5 7.5 7.5z"/><path d="m470.386 356.559h-83.573c-4.142 0-7.5 3.358-7.5 7.5s3.358 7.5 7.5 7.5h83.573c4.142 0 7.5-3.358 7.5-7.5s-3.358-7.5-7.5-7.5z"/><path d="m470.386 384.266h-83.573c-4.142 0-7.5 3.358-7.5 7.5s3.358 7.5 7.5 7.5h83.573c4.142 0 7.5-3.358 7.5-7.5s-3.358-7.5-7.5-7.5z"/><path d="m447.435 142.825v-56.886c0-6.893-5.607-12.5-12.5-12.5h-384.377c-6.893 0-12.5 5.607-12.5 12.5v56.886c0 6.893 5.607 12.5 12.5 12.5h64.435c4.142 0 7.5-3.358 7.5-7.5s-3.358-7.5-7.5-7.5h-61.935v-51.886h379.377v51.886h-284.756c-4.142 0-7.5 3.358-7.5 7.5s3.358 7.5 7.5 7.5h287.256c6.893 0 12.5-5.607 12.5-12.5z"/><path d="m386.813 344.467h20.042c4.142 0 7.5-3.358 7.5-7.5s-3.358-7.5-7.5-7.5h-17.542v-31.887h78.573v31.887h-27.951c-4.142 0-7.5 3.358-7.5 7.5s3.358 7.5 7.5 7.5h30.451c6.893 0 12.5-5.607 12.5-12.5v-36.887c0-6.893-5.607-12.5-12.5-12.5h-83.573c-6.893 0-12.5 5.607-12.5 12.5v36.887c0 6.892 5.607 12.5 12.5 12.5z"/></g></g></svg>